<svg width="11" height="10" viewBox="0 0 11 10" fill="none" xmlns="http://www.w3.org/2000/svg">
<path d="M2.43762 3.31507H0.159491V9.98655H2.43762V3.31507Z" fill="#646464"/>
<path d="M2.05462 0.201635C1.8375 0.0701661 1.58234 3.99915e-06 1.32133 1.70346e-10C1.14718 -2.66581e-06 0.974735 0.0312427 0.813929 0.0919395C0.653124 0.152636 0.507125 0.241586 0.38433 0.353675C0.261535 0.465763 0.164367 0.598778 0.098413 0.74507C0.0324591 0.891361 -0.000979103 1.04804 2.18239e-05 1.2061C0.00152211 1.44299 0.0802888 1.67416 0.226386 1.87046C0.372482 2.06677 0.579363 2.2194 0.820929 2.30911C1.0625 2.39882 1.32793 2.42158 1.58373 2.37454C1.83954 2.32749 2.07426 2.21274 2.25829 2.04475C2.44232 1.87677 2.56741 1.66308 2.61779 1.43064C2.66816 1.19821 2.64155 0.957443 2.54132 0.738716C2.4411 0.51999 2.27174 0.333104 2.05462 0.201635Z" fill="#646464"/>
<path d="M6.09444 3.31473H3.89984L3.89225 10H6.17037V6.69872C6.17037 5.83032 6.35262 4.98949 7.53725 4.98949C8.72187 4.98949 8.72188 5.98884 8.72188 6.76074V9.98622H11V6.32655C11 4.52773 10.5368 3.14932 8.25866 3.14932C7.82446 3.1339 7.3938 3.22577 7.01264 3.41512C6.63148 3.60448 6.31412 3.88422 6.09444 4.22448V3.31473Z" fill="#646464"/>
</svg>
