<svg width="11" height="9" viewBox="0 0 11 9" fill="none" xmlns="http://www.w3.org/2000/svg">
<path d="M10.8182 1.00421C10.4206 1.18942 9.91712 1.36326 9.46591 1.42105C9.92478 1.13495 10.6528 0.539053 10.8182 0C10.3895 0.264789 9.61421 0.547579 9.10846 0.649895C8.70458 0.199895 8.12851 0 7.49024 0C6.26418 0 5.40909 1.09184 5.40909 2.36842V3.31579C3.60606 3.31579 1.84811 1.87247 0.754118 0.473684C0.556306 0.82624 0.452454 1.22825 0.453462 1.63753C0.453462 2.49916 1.20668 3.37358 1.80303 3.78947C1.43927 3.77763 0.750511 3.48584 0.450758 3.31579V3.34279C0.450758 4.464 1.19947 5.22521 2.21412 5.43742C2.02886 5.49095 1.80303 5.68421 0.93397 5.68421C1.21614 6.60079 2.63468 7.08537 3.60606 7.10526C2.84608 7.72437 1.49111 8.05263 0.450758 8.05263C0.270905 8.05263 0.173542 8.06305 0 8.04174C0.98175 8.69542 2.35295 9 3.60606 9C7.68857 9 9.91667 5.72305 9.91667 2.66684C9.91667 2.56642 9.91351 2.23011 9.90855 2.13158C10.3449 1.80853 10.5216 1.47032 10.8182 1.00421Z" fill="#646464"/>
</svg>
