<svg width="48" height="48" viewBox="0 0 48 48" fill="none" xmlns="http://www.w3.org/2000/svg">
<path d="M35 22.0015C27.832 22.0015 22 27.8335 22 35.0015C22 42.1695 27.832 48.0015 35 48.0015C42.168 48.0015 48 42.1695 48 35.0015C48 27.8335 42.168 22.0015 35 22.0015ZM34.75 33.5015H35.25C37.318 33.5015 39 35.1835 39 37.2515C39 38.8775 37.952 40.2535 36.5 40.7715V41.5015C36.5 42.3295 35.828 43.0015 35 43.0015C34.172 43.0015 33.5 42.3295 33.5 41.5015V41.0015H32.5C31.672 41.0015 31 40.3295 31 39.5015C31 38.6735 31.672 38.0015 32.5 38.0015H35.25C35.664 38.0015 36 37.6655 36 37.2515C36 36.8375 35.664 36.5015 35.25 36.5015H34.75C32.682 36.5015 31 34.8195 31 32.7515C31 31.1255 32.048 29.7495 33.5 29.2315V28.5015C33.5 27.6735 34.172 27.0015 35 27.0015C35.828 27.0015 36.5 27.6735 36.5 28.5015V29.0015H37.5C38.328 29.0015 39 29.6735 39 30.5015C39 31.3295 38.328 32.0015 37.5 32.0015H34.75C34.336 32.0015 34 32.3375 34 32.7515C34 33.1655 34.336 33.5015 34.75 33.5015Z" fill="#F7A804"/>
<path d="M34 11.9175V4.0015C34 2.8955 33.104 2.0015 32 2.0015C30.896 2.0015 30 2.8955 30 4.0015V8.0055L22.398 0.5715C21.62 -0.1905 20.378 -0.1905 19.602 0.5715L0.878 18.8755C0.32 19.4395 0 20.2135 0 21.0015C0 22.6555 1.346 24.0015 3 24.0015H6V35.0015C6 37.7595 8.244 40.0015 11 40.0015H16C17.104 40.0015 18 39.1075 18 38.0015C18 36.8955 17.104 36.0015 16 36.0015H11C10.448 36.0015 10 35.5515 10 35.0015V22.0015C10 20.8955 9.104 20.0015 8 20.0015H5.446L21 4.7975L34.102 17.6095C34.894 18.3835 36.158 18.3695 36.93 17.5775C37.702 16.7875 37.688 15.5215 36.898 14.7495L34 11.9175Z" fill="#3B3C45"/>
</svg>
