<svg width="122" height="37" viewBox="0 0 122 37" fill="none" xmlns="http://www.w3.org/2000/svg">
<path d="M70.0862 1.23401V4.00071C70.0937 4.18625 70.1737 4.36143 70.309 4.48863C70.4442 4.61582 70.624 4.68488 70.8097 4.68096H77.236L69.8316 15.2769C69.3636 15.9581 69.3636 16.7236 69.3636 17.1492V19.9575C69.3636 20.3831 69.8314 20.8085 70.2569 20.5958C74.4271 18.3404 79.4911 18.5531 83.2784 20.5532C83.7462 20.8082 84.1718 20.3405 84.1718 19.9149V16.9787C84.1291 16.5957 84.0015 16.1701 83.5335 15.9148C81.4061 14.7237 78.8951 14.3833 76.512 14.4259L82.8951 5.31926C83.4909 4.46785 83.8313 3.95747 83.8313 3.57449V1.23401C83.8239 1.04836 83.744 0.873012 83.6087 0.745678C83.4734 0.618345 83.2935 0.549198 83.1078 0.553109H70.7671C70.6764 0.548276 70.5857 0.562578 70.5009 0.595086C70.4161 0.627595 70.3391 0.677581 70.2749 0.741798C70.2106 0.806016 70.1606 0.883027 70.1281 0.967827C70.0956 1.05263 70.0813 1.14332 70.0862 1.23401Z" fill="#C4C4C4"/>
<path d="M21.3619 21.1493H25.1066C25.2905 21.1558 25.4703 21.0944 25.6116 20.9766C25.7529 20.8589 25.8458 20.6931 25.8726 20.5111V10.298C25.8726 10.2313 25.8725 10.1639 25.8724 10.0959C25.87 7.86409 25.8668 4.97875 28.4684 4.97875C30.8438 4.97875 30.8045 7.566 30.7731 9.63459C30.7696 9.86349 30.7663 10.086 30.7663 10.298V20.5111C30.7663 20.8516 31.0642 21.1494 31.4472 21.192H35.1919C35.3776 21.1959 35.5575 21.1267 35.6928 20.9994C35.828 20.8721 35.9079 20.6967 35.9153 20.5111V10.298C35.9153 10.2005 35.9149 10.0991 35.9146 9.99441C35.9111 8.91161 35.9064 7.48831 36.2557 6.59587C36.4371 6.14207 36.7473 5.75124 37.148 5.47148C37.5488 5.19172 38.0226 5.03526 38.5111 5.02135C39.6176 5.02135 40.4261 5.40433 40.7239 6.68093C40.8574 7.28202 40.8338 8.66927 40.8174 9.62939C40.8129 9.89275 40.809 10.124 40.809 10.298V20.5111C40.809 20.8516 41.1069 21.1494 41.4899 21.192H45.1925C45.3783 21.1959 45.5581 21.1267 45.6934 20.9994C45.8286 20.8721 45.9085 20.6967 45.9159 20.5111V8.34064C45.9159 8.03054 45.9215 7.71478 45.9272 7.3966C45.9597 5.57533 45.9937 3.67452 44.9797 2.29801C43.9158 0.808558 42.2136 0.170257 40.6391 0.170257C38.426 0.170257 36.3406 1.3192 35.4472 3.74475C34.4258 1.3192 32.9365 0.170257 30.596 0.170257C28.2981 0.170257 26.5531 1.3192 25.6597 3.74475H25.5747V1.23401C25.5609 1.06197 25.4835 0.901233 25.3576 0.783199C25.2317 0.665165 25.0663 0.598312 24.8938 0.595703H21.4043C21.2186 0.591826 21.0388 0.66099 20.9035 0.78832C20.7682 0.915649 20.6883 1.09098 20.681 1.2766V20.511C20.7087 20.6773 20.7904 20.83 20.9134 20.9453C21.0365 21.0607 21.1941 21.1324 21.3619 21.1493Z" fill="#C4C4C4"/>
<path fill-rule="evenodd" clip-rule="evenodd" d="M103.066 11.0215C103.066 4.93629 100.044 0.170257 94.4697 0.170257C89.0228 0.170257 86.0014 4.85109 86.044 10.8513C86.044 16.8088 89.0228 21.5749 94.4697 21.5749C99.7465 21.5749 103.066 16.894 103.066 11.0215ZM91.5335 10.2555C91.5335 7.91507 91.7036 4.12772 94.4697 4.12772C95.6612 4.12772 96.5122 4.63824 96.9378 6.00003C97.406 7.53209 97.4911 9.48946 97.4911 11.1066C97.4911 13.5747 97.3209 17.6174 94.4272 17.6174C91.5317 17.6174 91.5329 12.7345 91.5335 10.3546L91.5335 10.2555Z" fill="#C4C4C4"/>
<path d="M106.512 21.1493H110.257C110.446 21.1476 110.627 21.078 110.768 20.9528C110.909 20.8277 110.999 20.6557 111.023 20.4688V10.085C111.023 8.76584 111.108 7.6165 111.619 6.42535C112.044 5.489 112.895 4.89343 113.789 4.89343C116.176 4.89343 116.152 7.48493 116.133 9.55636C116.131 9.73733 116.129 9.91433 116.129 10.0853V20.5533C116.172 20.8511 116.47 21.1063 116.81 21.1489H120.555C120.728 21.1566 120.898 21.0999 121.031 20.99C121.165 20.88 121.253 20.7244 121.279 20.5533V8.42545C121.279 6.55301 121.279 3.95721 120.3 2.42529C119.236 0.765443 117.577 0.169866 115.917 0.169866C113.321 0.169866 111.874 1.40388 110.81 4.04228H110.725V1.10609C110.688 0.952349 110.601 0.815152 110.478 0.71531C110.355 0.615467 110.203 0.558428 110.044 0.552848H106.555C106.378 0.554195 106.207 0.619519 106.074 0.7368C105.941 0.854082 105.855 1.01543 105.832 1.19115V20.4684C105.832 20.8089 106.129 21.1067 106.512 21.1493Z" fill="#C4C4C4"/>
<path fill-rule="evenodd" clip-rule="evenodd" d="M63.6108 21.2931C63.7711 21.2778 63.9225 21.2127 64.0438 21.1068L64.0452 21.1067C64.3171 20.8801 64.6641 20.5838 65.0348 20.2672C65.7082 19.6921 66.4599 19.0502 66.9814 18.6385C67.2792 18.4258 67.2367 18.0002 66.9814 17.6598C66.8994 17.5419 66.8167 17.4271 66.7348 17.3133C66.1367 16.4824 65.5771 15.705 65.5771 14.1704V8.34052C65.5771 8.14569 65.5782 7.95191 65.5793 7.7594C65.5916 5.51376 65.6029 3.44009 63.9176 1.87231C62.4707 0.468045 60.0877 0 58.2579 0C54.6834 0 50.7258 1.3192 49.8748 5.74484C49.7897 6.21302 50.1302 6.42574 50.428 6.5108L54.0451 6.89379C54.3856 6.89379 54.5984 6.55327 54.6834 6.21289C54.9813 4.68083 56.2579 3.95747 57.7048 3.95747C58.4701 3.95747 59.3213 4.25526 59.7893 4.93616C60.2783 5.61336 60.2685 6.52364 60.2597 7.34291C60.2585 7.45028 60.2574 7.5561 60.2574 7.65962V8.12766C59.9045 8.16918 59.5337 8.20845 59.1512 8.24896C57.1816 8.45755 54.9039 8.69876 53.1934 9.44686C50.8523 10.4683 49.1927 12.5108 49.1927 15.5747C49.1927 19.4471 51.6609 21.4046 54.8099 21.4046C57.4482 21.4046 58.9376 20.7656 60.9802 18.6811C61.0797 18.824 61.1701 18.957 61.2557 19.083C61.7568 19.82 62.0966 20.3197 63.1504 21.1919C63.2895 21.2729 63.4505 21.3083 63.6108 21.2931ZM60.2567 12.1863C60.2566 12.1106 60.2565 12.0345 60.2565 11.9577V11.1498C57.533 11.1498 54.6819 11.7457 54.6819 14.9372C54.6819 16.5543 55.5329 17.6606 56.9797 17.6606C58.0436 17.6606 58.98 17.0223 59.5756 15.9584C60.2607 14.7086 60.2588 13.5358 60.2567 12.1863Z" fill="#C4C4C4"/>
<path fill-rule="evenodd" clip-rule="evenodd" d="M14.4181 21.2931C14.5783 21.2778 14.7298 21.2127 14.8511 21.1068L14.8525 21.1067C15.1244 20.8801 15.4714 20.5838 15.842 20.2673C16.5155 19.6921 17.2671 19.0502 17.7887 18.6385C18.0865 18.4258 18.044 18.0002 17.7887 17.6598C17.7066 17.5419 17.624 17.4271 17.5421 17.3133C16.944 16.4824 16.3844 15.705 16.3844 14.1704V8.34052C16.3844 8.14569 16.3855 7.95192 16.3865 7.75941C16.3988 5.51377 16.4102 3.44009 14.7248 1.87231C13.278 0.468045 10.895 0 9.06518 0C5.49069 0 1.53309 1.3192 0.682064 5.74484C0.597 6.21302 0.937514 6.42574 1.2353 6.5108L4.85239 6.89379C5.1929 6.89379 5.40563 6.55327 5.49069 6.21289C5.78861 4.68083 7.06521 3.95747 8.51207 3.95747C9.27738 3.95747 10.1285 4.25526 10.5966 4.93616C11.0856 5.61336 11.0758 6.52364 11.0669 7.34291C11.0658 7.45029 11.0646 7.5561 11.0646 7.65962V8.12766C10.7118 8.16918 10.341 8.20845 9.95849 8.24896C7.98884 8.45755 5.71115 8.69876 4.00071 9.44686C1.65958 10.4683 0 12.5108 0 15.5747C0 19.4471 2.46814 21.4046 5.61718 21.4046C8.25545 21.4046 9.74491 20.7656 11.7875 18.6811C11.887 18.8241 11.9773 18.957 12.063 19.083C12.5641 19.82 12.9039 20.3197 13.9577 21.1919C14.0968 21.2729 14.2578 21.3083 14.4181 21.2931ZM11.1066 12.1863C11.1064 12.1107 11.1063 12.0345 11.1063 11.9577V11.1498C8.38286 11.1498 5.53173 11.7457 5.53173 14.9372C5.53173 16.5543 6.38276 17.6606 7.82962 17.6606C8.8935 17.6606 9.82985 17.0223 10.4254 15.9584C11.1105 14.7086 11.1087 13.5358 11.1066 12.1863Z" fill="#C4C4C4"/>
<path d="M78.1709 25.1919C77.2775 24.043 72.2133 24.6387 69.958 24.9366C69.2771 25.0217 69.1495 24.426 69.7878 24.0004C73.8304 21.1493 80.4263 22.0003 81.1923 22.9365C81.9582 23.8727 80.9796 30.5107 77.1916 33.6601C76.596 34.1282 76.0426 33.8728 76.2982 33.2345L76.3428 33.1233C77.2142 30.9464 79.0493 26.3627 78.1709 25.1919Z" fill="#C4C4C4"/>
<path d="M75.2349 28.554C68.2135 33.7458 58.0005 36.5116 49.1918 36.5116C36.8511 36.5116 25.7871 31.9583 17.3614 24.3838C16.7231 23.7882 17.2764 22.9795 18.0848 23.4476C27.1488 28.7242 38.3406 31.8733 49.9152 31.8733C57.7026 31.8733 66.2984 30.2563 74.2135 26.8944C75.4047 26.4264 76.3839 27.703 75.2349 28.554Z" fill="#C4C4C4"/>
</svg>
