<svg width="584" height="620" viewBox="0 0 584 620" fill="none" xmlns="http://www.w3.org/2000/svg">
<path d="M241.032 610.03L231.713 200.4L58.0327 200.4L60.5743 610.03H241.032Z" fill="#F1F6FF"/>
<path d="M302.879 607.913V336.803L512.566 342.922V607.913H302.879Z" fill="#FEFCED"/>
<path d="M58.033 200.4L60.5747 610.03H159.276L154.616 200.4H58.033Z" fill="#7398F7"/>
<path d="M182.997 158.887H110.983V200.401H182.997V158.887Z" fill="#1F1D42"/>
<path d="M110.983 158.887V200.401H159.698C136.315 195.318 129.057 170.607 128.351 158.887H110.983Z" fill="#1F1717"/>
<path d="M152.498 88.1434L144.026 87.2961C141.908 86.4489 141.484 76.7059 149.533 78.824C155.971 80.5184 154.192 85.7429 152.498 88.1434Z" fill="#0E173D"/>
<path d="M152.498 88.1443L144.026 87.2971V99.5816L152.498 100.429V88.1443Z" fill="#0E173D"/>
<path d="M144.025 99.5806L152.497 100.428L183.845 122.879H110.56L144.025 99.5806Z" fill="#1F1D42"/>
<path d="M323.636 402.039H316.859V450.33H313.893V455.414H326.602V448.636H323.636V402.039Z" fill="#1B2A63"/>
<path d="M512.566 611.302H302.879V472.358L512.566 475.417V611.302Z" fill="#A3BDFF"/>
<path d="M448.177 241.49L221.546 234.289L302.879 336.803L520.614 343.157L448.177 241.49Z" fill="#063183"/>
<path d="M302.879 336.803L520.614 343.157L316.011 237.291L221.546 234.289L302.879 336.803Z" fill="#7087FB"/>
<path d="M221.546 234.289L302.879 336.803V604.947L152.921 612.149V475.323V336.803L193.164 283.851H184.268L221.546 234.289Z" fill="#CFDEF3"/>
<path d="M250.776 296.559H206.297V349.934H250.776V296.559Z" fill="#0C183F"/>
<rect x="211.38" y="302.065" width="15.2499" height="18.6388" fill="#1F326B"/>
<rect x="232.56" y="302.065" width="15.2499" height="18.6388" fill="#1F326B"/>
<rect x="232.56" y="327.483" width="15.2499" height="18.6388" fill="#1F326B"/>
<path d="M110.562 122.878H183.846H188.929V124.996H104.631V122.878H110.562Z" stroke="black"/>
<path d="M150.804 377.044H303.727H512.99" stroke="black" stroke-width="4"/>
<path d="M151.652 485.489H301.186H511.297" stroke="black" stroke-width="5"/>
<path d="M151.652 485.489H301.186" stroke="#5267FA" stroke-width="6"/>
<rect x="211.38" y="327.483" width="15.2499" height="18.6388" fill="#1F326B"/>
<path d="M113.525 288.934H91.0741V349.933H115.22L113.525 288.934Z" fill="#0E173D"/>
<path d="M113.525 394.413H91.0741V455.413H115.22L113.525 394.413Z" fill="#0C193F"/>
<path d="M114.797 266.059H91.9224V219.462C97.3446 204.212 106.325 213.108 110.138 219.462L114.797 266.059Z" fill="#1F1D42"/>
<path d="M352.019 246.15H327.873L306.693 239.796V200.4V198.282L327.873 197.71L353.714 197.011L353.597 200.4L352.019 246.15Z" fill="#1F326B"/>
<path d="M352.019 246.15H327.874V200.4V197.71L353.714 197.011L353.597 200.4L352.019 246.15Z" fill="#FEFDE8"/>
<path d="M306.693 198.282L327.873 197.71L353.714 197.011L353.597 200.4H327.873H306.693V198.282Z" fill="#112F7F"/>
<rect x="180.881" y="124.998" width="1.69444" height="33.8888" fill="#0C1942"/>
<rect x="241.032" y="165.665" width="1.69444" height="189.777" transform="rotate(90 241.032 165.665)" fill="#0C1942"/>
<rect x="241.032" y="198.705" width="1.69444" height="189.777" transform="rotate(90 241.032 198.705)" fill="#0C1942"/>
<path d="M58.0009 230.899H155.855H232.501" stroke="#18265D" stroke-width="4"/>
<rect x="241.032" y="185.151" width="1.69444" height="189.777" transform="rotate(90 241.032 185.151)" fill="#081334"/>
<rect x="110.56" y="124.998" width="1.69444" height="33.8888" fill="#132355"/>
<rect x="128.352" y="130.927" width="1.69444" height="27.9582" fill="#132355"/>
<rect x="131.741" y="130.927" width="1.69444" height="27.9582" fill="#132355"/>
<rect x="136.824" y="130.927" width="1.69444" height="27.9582" fill="#132355"/>
<path d="M221.546 234.289L227.259 243.185M302.879 336.803L296.72 329.178M227.259 243.185L453.308 248.692M227.259 243.185L237.524 255.893M237.524 255.893L462.061 260.976M237.524 255.893L248.816 269.872M248.816 269.872L470.813 273.261M248.816 269.872L257.976 281.213M257.976 281.213L479.566 285.546M257.976 281.213L269.004 294.865M269.004 294.865L488.42 297.972M269.004 294.865L278.243 306.303M278.243 306.303L497.739 311.052M278.243 306.303L290.561 321.553M290.561 321.553H505.221M290.561 321.553L296.72 329.178M296.72 329.178L512.918 332.355" stroke="#A3BDFF" stroke-width="4"/>
<rect x="83.4506" y="167.359" width="1.69444" height="31.3471" fill="#121B3A"/>
<rect x="51.2557" y="167.359" width="1.69444" height="31.3471" fill="#121B3A"/>
<rect x="239.338" y="167.359" width="1.69444" height="31.3471" fill="#121B3A"/>
<path d="M377.436 510.059H363.88V578.683H377.436V510.059Z" fill="#0C183F"/>
<path d="M363.88 578.683H377.436V544.371H363.88V578.683Z" fill="#17275F"/>
<path d="M489.691 547.337H467.24V579.531H489.691V547.337Z" fill="#17275F"/>
<path d="M148.687 78.8236L146.992 0.0322495" stroke="black" stroke-width="3"/>
<rect x="210.534" y="167.359" width="1.69444" height="31.3471" fill="#121B3A"/>
<rect x="151.227" y="167.359" width="1.69444" height="31.3471" fill="#121B3A"/>
<rect x="77.5193" y="167.359" width="1.69444" height="31.3471" fill="#121B3A"/>
<rect x="204.602" y="167.359" width="1.69444" height="31.3471" fill="#121B3A"/>
<rect x="204.602" y="167.359" width="1.69444" height="31.3471" fill="#121B3A"/>
<rect x="145.298" y="167.359" width="1.69444" height="31.3471" fill="#121B3A"/>
<rect x="158.853" y="130.927" width="1.69444" height="27.9582" fill="#121B3A"/>
<rect x="162.241" y="130.927" width="1.69444" height="27.9582" fill="#121B3A"/>
<rect x="152.921" y="130.927" width="1.69444" height="27.9582" fill="#121B3A"/>
<path d="M467.24 579.531H489.691V563.434H467.24V579.531Z" fill="#0F1C49"/>
<path d="M503.67 555.385H495.198V573.177L503.67 572.753V555.385Z" fill="#FAF2E2"/>
<path d="M200.365 510.482V547.759H204.601V603.676H211.803V545.218H207.143V516.836H248.657V545.218H241.879V603.676H246.115V547.759H254.164V510.482H200.365Z" fill="#0D0808"/>
<path d="M241.881 545.218V603.676H211.805V545.218H207.145V516.836H248.659V545.218H241.881Z" fill="#17275F"/>
<path d="M584 610.453H0V619.032H584V610.453Z" fill="#091D39"/>
<path d="M571.873 610.454V575.718M510.026 575.718V610.454M446.485 575.718V610.454M385.909 575.718V610.454M323.214 575.718V610.454M259.249 575.718V610.454M201.638 575.718V610.454M136.826 575.718V610.454M74.132 575.718V610.454M14.4031 575.718V610.454" stroke="black" stroke-width="4"/>
<path d="M571.873 581.032C558.6 592.611 527.648 608.821 510.026 581.032C495.623 589.787 462.751 601.812 446.485 580.801C433.776 589.273 403.869 602.321 385.908 586.732C373.341 592.521 343.209 600.626 323.214 586.732C305.705 590.403 268.399 595.543 259.249 586.732C247.388 590.403 219.26 595.543 201.638 586.732C184.553 590.403 147.67 595.543 136.826 586.732C118.752 592.945 89.8057 601.134 74.1318 586.732C57.0807 590.403 23.3695 596.343 13.5004 587.532" stroke="black" stroke-width="3"/>
<circle cx="571.965" cy="573.997" r="2.96527" fill="#06162A"/>
<circle cx="510.026" cy="573.6" r="2.96527" fill="#06162A"/>
<circle cx="446.484" cy="574.449" r="2.96527" fill="#06162A"/>
<circle cx="385.965" cy="573.997" r="2.96527" fill="#06162A"/>
<circle cx="322.965" cy="573.997" r="2.96527" fill="#06162A"/>
<circle cx="259.249" cy="574.449" r="2.96527" fill="#06162A"/>
<circle cx="201.638" cy="573.6" r="2.96527" fill="#06162A"/>
<circle cx="136.965" cy="573.6" r="2.96527" fill="#06162A"/>
<circle cx="73.9653" cy="575.295" r="2.96527" fill="#06162A"/>
<circle cx="13.9653" cy="576.997" r="2.96527" fill="#06162A"/>
<path d="M56.7639 44.5112L69.4722 55.5251L82.1805 44.5112" stroke="black" stroke-width="4"/>
<path d="M8.47162 37.7338L21.1799 48.7477L33.8882 37.7338" stroke="black" stroke-width="4"/>
<path d="M63.5413 15.7073L76.2496 26.7211L88.9579 15.7073" stroke="black" stroke-width="4"/>
<path d="M133.014 19.942L145.722 30.9559L158.431 19.942" stroke="black" stroke-width="4"/>
<path d="M255.86 389.331H210.11L211.805 457.108H255.86V389.331Z" fill="#0F1F4C"/>
<path d="M244.847 400.768H221.125V445.671H244.847V400.768Z" fill="#142553"/>
</svg>
