<svg width="21" height="16" viewBox="0 0 21 16" fill="none" xmlns="http://www.w3.org/2000/svg">
<path fill-rule="evenodd" clip-rule="evenodd" d="M18.2715 6.11577H2.3201C2.03318 6.11577 1.80058 6.34836 1.80058 6.63528V13.1115C1.80058 13.3984 2.03318 13.631 2.3201 13.631H18.2715C18.5584 13.631 18.791 13.3984 18.791 13.1115V6.63528C18.791 6.34836 18.5584 6.11577 18.2715 6.11577ZM2.3201 4.31519C1.03874 4.31519 0 5.35393 0 6.63528V13.1115C0 14.3928 1.03874 15.4316 2.3201 15.4316H18.2715C19.5528 15.4316 20.5916 14.3928 20.5916 13.1115V6.63528C20.5916 5.35393 19.5528 4.31519 18.2715 4.31519H2.3201Z" fill="#0688FF"/>
<path fill-rule="evenodd" clip-rule="evenodd" d="M15.096 1.80058H5.49682C5.2099 1.80058 4.97731 2.03318 4.97731 2.3201V4.33321H15.6155V2.3201C15.6155 2.03318 15.3829 1.80058 15.096 1.80058ZM5.49682 0C4.21547 0 3.17673 1.03874 3.17673 2.3201V6.13379H17.4161V2.3201C17.4161 1.03874 16.3774 0 15.096 0H5.49682Z" fill="#0688FF"/>
</svg>
