<svg width="22" height="18" viewBox="0 0 22 18" fill="none" xmlns="http://www.w3.org/2000/svg">
<path fill-rule="evenodd" clip-rule="evenodd" d="M1.87781 8.21582L2.6879 14.7319C2.72371 15.02 2.96854 15.2363 3.25885 15.2363H17.9497C18.2372 15.2363 18.4805 15.0241 18.5197 14.7394L19.4175 8.21582H1.87781ZM1.57518 6.37354C0.628273 6.37354 -0.10456 7.20312 0.0122615 8.14279L0.859685 14.9592C1.01018 16.1698 2.03897 17.0786 3.25885 17.0786H17.9497C19.1576 17.0786 20.1801 16.1871 20.3448 14.9905L21.2844 8.16321C21.4146 7.21695 20.6793 6.37354 19.7242 6.37354H1.57518Z" fill="#0C8BFF"/>
<path fill-rule="evenodd" clip-rule="evenodd" d="M9.76244 2.35155C9.07685 2.73478 8.78612 3.20201 8.74854 3.54734L8.62594 4.6737L7.54832 4.32378C6.59168 4.01315 5.97681 4.03055 5.58983 4.14691C5.2239 4.25695 4.96289 4.48466 4.75944 4.82558C4.30641 5.58476 4.22669 6.75045 4.22669 7.69597L2.3844 7.69597C2.3844 6.77887 2.43398 5.12737 3.17742 3.88153C3.57221 3.21995 4.17622 2.6482 5.05934 2.38266C5.69685 2.19096 6.41976 2.17697 7.22941 2.33734C7.58331 1.66381 8.18741 1.12138 8.86355 0.743439C9.87257 0.179432 11.1747 -0.105262 12.5339 0.03571C15.3307 0.325772 18.2273 2.384 19.5558 7.14624L17.7813 7.64129C16.6196 3.47687 14.2611 2.06701 12.3439 1.86817C11.3461 1.76469 10.4265 1.98034 9.76244 2.35155Z" fill="#0C8BFF"/>
</svg>
